<mxfile host="app.diagrams.net" agent="Mozilla/5.0 (Windows NT 10.0; Win64; x64) AppleWebKit/537.36 (KHTML, like Gecko) Chrome/131.0.0.0 Safari/537.36 Edg/131.0.0.0" version="25.0.3">
  <diagram name="Page-1" id="jYkO5zT0BY1kESSmGEV2">
    <mxGraphModel dx="1042" dy="565" grid="1" gridSize="10" guides="1" tooltips="1" connect="1" arrows="1" fold="1" page="1" pageScale="1" pageWidth="850" pageHeight="1100" math="0" shadow="0">
      <root>
        <mxCell id="0" />
        <mxCell id="1" parent="0" />
        <mxCell id="Tl0jp7JPn0mM06C3blRg-5" style="edgeStyle=orthogonalEdgeStyle;rounded=0;orthogonalLoop=1;jettySize=auto;html=1;entryX=0;entryY=0.5;entryDx=0;entryDy=0;" edge="1" parent="1" source="Tl0jp7JPn0mM06C3blRg-2" target="Tl0jp7JPn0mM06C3blRg-4">
          <mxGeometry relative="1" as="geometry" />
        </mxCell>
        <mxCell id="Tl0jp7JPn0mM06C3blRg-2" value="Start" style="strokeWidth=2;html=1;shape=mxgraph.flowchart.start_2;whiteSpace=wrap;" vertex="1" parent="1">
          <mxGeometry x="70" y="180" width="100" height="100" as="geometry" />
        </mxCell>
        <mxCell id="Tl0jp7JPn0mM06C3blRg-3" value="End" style="strokeWidth=2;html=1;shape=mxgraph.flowchart.start_2;whiteSpace=wrap;" vertex="1" parent="1">
          <mxGeometry x="710" y="180" width="100" height="100" as="geometry" />
        </mxCell>
        <mxCell id="Tl0jp7JPn0mM06C3blRg-4" value="Input: a,b" style="shape=parallelogram;html=1;strokeWidth=2;perimeter=parallelogramPerimeter;whiteSpace=wrap;rounded=1;arcSize=12;size=0.23;" vertex="1" parent="1">
          <mxGeometry x="250" y="200" width="100" height="60" as="geometry" />
        </mxCell>
        <mxCell id="Tl0jp7JPn0mM06C3blRg-13" style="edgeStyle=orthogonalEdgeStyle;rounded=0;orthogonalLoop=1;jettySize=auto;html=1;" edge="1" parent="1" source="Tl0jp7JPn0mM06C3blRg-6">
          <mxGeometry relative="1" as="geometry">
            <mxPoint x="580" y="290" as="targetPoint" />
            <Array as="points">
              <mxPoint x="521" y="230" />
              <mxPoint x="521" y="290" />
              <mxPoint x="580" y="290" />
            </Array>
          </mxGeometry>
        </mxCell>
        <mxCell id="Tl0jp7JPn0mM06C3blRg-14" style="edgeStyle=orthogonalEdgeStyle;rounded=0;orthogonalLoop=1;jettySize=auto;html=1;" edge="1" parent="1" source="Tl0jp7JPn0mM06C3blRg-6">
          <mxGeometry relative="1" as="geometry">
            <mxPoint x="580" y="170" as="targetPoint" />
            <Array as="points">
              <mxPoint x="521" y="230" />
            </Array>
          </mxGeometry>
        </mxCell>
        <mxCell id="Tl0jp7JPn0mM06C3blRg-6" value="a&amp;lt;b" style="strokeWidth=2;html=1;shape=mxgraph.flowchart.decision;whiteSpace=wrap;" vertex="1" parent="1">
          <mxGeometry x="400" y="180" width="100" height="100" as="geometry" />
        </mxCell>
        <mxCell id="Tl0jp7JPn0mM06C3blRg-7" style="edgeStyle=orthogonalEdgeStyle;rounded=0;orthogonalLoop=1;jettySize=auto;html=1;entryX=0;entryY=0.5;entryDx=0;entryDy=0;entryPerimeter=0;" edge="1" parent="1" source="Tl0jp7JPn0mM06C3blRg-4" target="Tl0jp7JPn0mM06C3blRg-6">
          <mxGeometry relative="1" as="geometry" />
        </mxCell>
        <mxCell id="Tl0jp7JPn0mM06C3blRg-15" value="true" style="text;html=1;align=center;verticalAlign=middle;resizable=0;points=[];autosize=1;strokeColor=none;fillColor=none;" vertex="1" parent="1">
          <mxGeometry x="520" y="148" width="40" height="30" as="geometry" />
        </mxCell>
        <mxCell id="Tl0jp7JPn0mM06C3blRg-16" value="false" style="text;html=1;align=center;verticalAlign=middle;resizable=0;points=[];autosize=1;strokeColor=none;fillColor=none;" vertex="1" parent="1">
          <mxGeometry x="515" y="288" width="50" height="30" as="geometry" />
        </mxCell>
        <mxCell id="Tl0jp7JPn0mM06C3blRg-17" value="a" style="shape=parallelogram;html=1;strokeWidth=2;perimeter=parallelogramPerimeter;whiteSpace=wrap;rounded=1;arcSize=12;size=0.23;" vertex="1" parent="1">
          <mxGeometry x="570" y="148" width="100" height="60" as="geometry" />
        </mxCell>
        <mxCell id="Tl0jp7JPn0mM06C3blRg-20" style="edgeStyle=orthogonalEdgeStyle;rounded=0;orthogonalLoop=1;jettySize=auto;html=1;" edge="1" parent="1" source="Tl0jp7JPn0mM06C3blRg-18">
          <mxGeometry relative="1" as="geometry">
            <mxPoint x="690" y="230" as="targetPoint" />
          </mxGeometry>
        </mxCell>
        <mxCell id="Tl0jp7JPn0mM06C3blRg-18" value="b" style="shape=parallelogram;html=1;strokeWidth=2;perimeter=parallelogramPerimeter;whiteSpace=wrap;rounded=1;arcSize=12;size=0.23;" vertex="1" parent="1">
          <mxGeometry x="570" y="258" width="100" height="60" as="geometry" />
        </mxCell>
        <mxCell id="Tl0jp7JPn0mM06C3blRg-19" style="edgeStyle=orthogonalEdgeStyle;rounded=0;orthogonalLoop=1;jettySize=auto;html=1;entryX=-0.032;entryY=0.572;entryDx=0;entryDy=0;entryPerimeter=0;" edge="1" parent="1" source="Tl0jp7JPn0mM06C3blRg-17" target="Tl0jp7JPn0mM06C3blRg-3">
          <mxGeometry relative="1" as="geometry">
            <Array as="points">
              <mxPoint x="690" y="178" />
              <mxPoint x="690" y="237" />
            </Array>
          </mxGeometry>
        </mxCell>
      </root>
    </mxGraphModel>
  </diagram>
</mxfile>
